<svg viewBox="0 0 59 19" fill="none" xmlns="http://www.w3.org/2000/svg">
<g id="Group 2">
<path id="Vector" d="M0 18.5462L5.48805 0.45459H14.9123L20.35 18.5462H13.3605L12.6037 15.4931H7.68327L6.91369 18.5462H0ZM8.69257 10.9512H11.6321L10.1813 4.79457L8.69257 10.9512Z" fill="#10FFFF"/>
<path id="Vector_2" d="M21.3719 18.661V0.569336H31.263C35.767 0.569336 38.1641 1.95712 38.1641 4.90932C38.1641 7.11714 36.8015 8.58061 34.7325 9.18625C36.9907 9.70347 38.7192 11.0786 38.7192 13.6019C38.7192 17.4877 35.439 18.661 30.5944 18.661H21.3719ZM28.0585 14.9014H29.4336C30.8341 14.9014 31.692 14.321 31.692 12.9711C31.692 11.7094 30.8214 11.1796 29.5219 11.1796H28.0585V14.9014ZM28.0585 7.49564H29.5219C30.7205 7.49564 31.5027 6.96579 31.5027 5.77988C31.5027 4.68217 30.6827 4.27852 29.5472 4.27852H28.0585V7.49564Z" fill="#10FFFF"/>
<path id="Vector_3" d="M48.8782 19C43.0117 19 39.088 15.9974 39.088 9.47474C39.088 2.9143 43.2766 0 49.181 0C54.4294 0 58.2773 2.54843 58.5044 6.9642H51.3384C51.3132 5.39968 50.695 4.16336 49.0675 4.16336C46.9985 4.16336 46.3298 6.16931 46.3298 9.44959C46.3298 12.8686 46.9606 14.8366 48.9791 14.8366C50.7707 14.8366 51.3511 13.3228 51.4519 11.5943H58.5044C58.2647 16.7543 54.1392 19 48.8782 19Z" fill="#10FFFF"/>
</g>
</svg>
