<svg xmlns="http://www.w3.org/2000/svg" viewBox="0 0 32 32">
  <circle cx="16" cy="16" r="16" fill="#F7931A"/>
  <path d="M22.5 14.3c.3-2.1-1.3-3.2-3.5-4l.7-2.8-1.7-.4-.7 2.7c-.4-.1-1-.2-1.4-.3l.7-2.7-1.7-.4L15 9.1c-.3-.1-.7-.2-1-.3v-.1l-2.4-.6-.5 1.9s1.2.3 1.2.3c.7.2.8.7.8 1.1l-.8 3c.1 0 .2.1.3.1-.1 0-.2-.1-.3-.1l-1.1 4.3c-.1.2-.3.6-.8.4 0 0-1.2-.3-1.2-.3l-.8 2 2.3.6c.4.1.8.2 1.2.3l-.7 2.8 1.7.4.7-2.7c.5.1 1 .2 1.4.3l-.7 2.7 1.7.4.7-2.8c2.9.5 5.1.3 6-2.3.7-2.1 0-3.3-1.5-4.1 1-.2 1.8-1 2-2.4zm-3.6 5.2c-.5 2-4 .9-5.1.7l.9-3.7c1.2.3 4.9.9 4.2 3zm.5-5.2c-.5 1.8-3.4.9-4.3.7l.8-3.4c.9.2 3.8.7 3.5 2.7z" fill="#FFF"/>
</svg> 